<?xml version="1.0" encoding="UTF-8"?>
<svg width="251px" height="58px" viewBox="0 0 251 58" version="1.1" xmlns="http://www.w3.org/2000/svg" xmlns:xlink="http://www.w3.org/1999/xlink">
    <!-- Generator: Sketch 53.1 (72631) - https://sketchapp.com -->
    <title>Group 6</title>
    <desc>Created with Sketch.</desc>
    <g id="Page-1" stroke="none" stroke-width="1" fill="none" fill-rule="evenodd">
        <g id="Landing-2" transform="translate(-1160.000000, -30.000000)">
            <g id="Group-6" transform="translate(1160.000000, 30.088281)">
                <g id="Group-2" transform="translate(161.000000, 0.000000)">
                    <polygon id="Path-2" fill="#FFFFFF" points="27.0542612 9.118509 35.0586835 24.3244753 29.3649596 35.0333295 40.7643387 35.0333295 48.1871093 48.9442508 21.4788562 48.9442508 17.9750262 56.405301 0 56.405301"></polygon>
                    <polygon id="Path-3" fill="#D53246" points="29.0000602 9.118509 44.3864877 9.118509 56.9417131 32.761905 75.1066461 0 89.152789 0 63.4656578 48.657402 50.4441168 48.657402"></polygon>
                </g>
                <path d="M147.43951,19.6601474 L147.678868,19.6601474 C150.551179,20.6175843 152.86495,21.0962956 154.620251,21.0962956 C155.477955,21.0962956 156.953981,20.7372621 159.048375,20.0191845 L159.64677,20.0191845 C160.125488,20.0590777 160.364844,20.1787555 160.364844,20.3782215 C158.011145,23.1707458 155.537803,24.566987 152.944745,24.566987 L150.311806,24.447308 C148.23736,24.447308 146.641656,25.1254823 145.524646,26.4818513 L145.285288,26.4818513 C144.587157,26.4818513 143.789305,25.9233548 142.891708,24.8063451 L142.891708,24.686666 C144.248077,21.3356369 145.763996,19.6601474 147.43951,19.6601474 Z M154.380893,25.0457031 L154.620251,25.5244191 L154.73993,30.4312587 C154.73993,39.3673365 154.460682,43.8353084 153.902177,43.8353084 C153.024526,45.6504492 151.628285,47.4057238 149.713411,49.101185 L149.593732,49.220864 L149.115016,49.220864 L148.875658,48.981506 L148.875658,43.3565923 C148.875658,40.3845486 148.676195,36.1160398 148.277263,30.5509378 C148.277263,30.0323261 150.152216,28.2371588 153.902177,25.1653821 L154.380893,25.0457031 Z M143.460595,28.5163945 C144.338246,29.8328703 145.614809,33.50299 147.290324,39.5268639 L147.290324,40.1252589 C147.290324,43.3167153 145.495157,46.0294125 141.904768,48.2634319 C141.027118,48.5825776 140.309051,48.742148 139.750546,48.742148 L139.391509,48.742148 C138.03514,48.742148 136.399543,48.3831145 134.484669,47.6650369 C133.806485,48.5426874 132.849062,48.981506 131.612373,48.981506 C130.435523,48.981506 128.760034,48.4629021 126.585854,47.4256788 C126.067243,48.1437565 125.189605,48.50279 123.952916,48.50279 L120.960941,48.50279 L120.721583,48.2634319 L120.721583,41.5614071 L120.960941,41.3220491 L121.679015,41.3220491 C123.833248,41.3220491 124.910348,40.8832304 124.910348,40.0055799 C125.568586,38.8885702 126.605794,36.7343695 128.022002,33.5429131 L129.458151,32.585481 L129.697509,32.585481 L129.817188,32.70516 L129.936867,32.70516 L128.859756,38.9284688 C129.039275,40.6837698 129.637664,41.5614071 130.654941,41.5614071 L131.133657,41.5614071 C132.210773,41.5614071 133.726692,39.0082803 135.681459,33.9019502 C136.539163,33.0242997 137.217338,32.585481 137.716003,32.585481 L137.835682,32.585481 L136.87825,38.2103947 L136.87825,38.9284688 C136.87825,40.6039834 137.556424,41.4417281 138.912793,41.4417281 L139.630867,41.4417281 C141.7851,41.4417281 142.8622,40.843339 142.8622,39.6465429 L140.109583,32.70516 L140.109583,32.465802 C140.428729,31.2490593 141.426044,29.9724959 143.101558,28.6360735 L143.460595,28.5163945 Z M117.490249,19.6601474 L117.609928,19.6601474 C117.929074,19.6601474 118.088644,20.5377848 118.088644,22.2930857 L118.088644,32.346123 L118.208323,39.4071848 C118.547415,40.603981 119.105912,41.2023701 119.883829,41.2023701 L120.960941,41.2023701 L121.200299,41.4417281 L121.200299,48.2634319 L120.960941,48.50279 L120.482225,48.50279 C115.056749,48.50279 112.344052,45.7502001 112.344052,40.2449379 L111.625977,25.0457031 C111.625977,24.5669846 113.261574,23.011173 116.532817,20.3782215 L117.490249,19.6601474 Z M96.4612858,27.4392834 L96.8203229,27.4392834 L99.4532612,30.0722217 L99.4532612,30.4312587 C99.4532612,30.9498704 98.5357312,31.9471856 96.7006438,33.4232341 L96.2219278,33.4232341 C94.3868404,31.9671322 93.4693104,30.9299244 93.4693104,30.3115797 L93.4693104,30.1919007 C94.945359,28.3568133 95.9426742,27.4392834 96.4612858,27.4392834 Z M105.437212,31.2690118 L105.67657,31.2690118 C106.434541,32.0469293 107.551534,34.6000561 109.027582,38.9284688 C109.346728,40.2848377 109.546191,41.5215085 109.625977,42.6385182 C109.625977,47.2461833 107.032958,51.0359809 101.846841,54.0080246 C100.011754,54.7261023 98.3362646,55.0851358 96.8203229,55.0851358 L96.5809648,55.0851358 C92.5916444,55.0851358 89.5996989,53.2101833 87.6050387,49.4602221 C87.3656795,48.6025182 87.2460017,47.7647735 87.2460017,46.9469628 L87.2460017,46.7076047 C87.2460017,43.6757212 87.9640686,40.963024 89.4002239,38.5694317 L89.519903,38.4497527 L89.639582,38.4497527 C90.0784072,38.4497527 90.5172259,38.729001 90.9560511,39.2875058 C90.5571191,41.282166 90.3576561,42.7182999 90.3576561,43.5959504 C90.3576561,46.4682611 92.4719642,47.9043949 96.7006438,47.9043949 C100.310979,47.9043949 102.824213,47.0267576 104.240422,45.2714566 L104.240422,44.9124195 C104.240422,44.1943418 103.482462,41.9204633 101.96652,38.0907157 L101.96652,37.7316786 C103.981127,33.4232126 105.138013,31.2690118 105.437212,31.2690118 Z M78.0307176,29.3541476 L78.2700756,29.3541476 C81.3019591,29.3541476 83.1769116,32.5056635 83.8949893,38.8087898 C84.0545621,39.3872412 84.1742399,40.623912 84.2540263,42.5188392 C84.2540263,49.4802034 81.2620809,54.2673161 75.2781002,56.880321 L74.5600261,56.880321 C73.6225358,56.880321 71.9470464,55.2447241 69.5335075,51.9734814 L68.8154334,51.1357283 L68.8154334,50.8963703 L69.1744705,50.5373332 C73.5028831,50.5373332 76.454936,49.8990515 78.0307176,48.622469 L78.0307176,48.50279 C74.5201156,48.50279 72.246237,47.6251526 71.2090137,45.8698516 C70.6505089,44.7328953 70.3712606,43.7355802 70.3712606,42.8778763 L70.3712606,41.9204442 C70.3712606,38.369949 71.5680388,34.819507 73.9616311,31.2690118 C75.3379466,29.9924293 76.6942952,29.3541476 78.0307176,29.3541476 Z M74.4403471,39.4071848 C74.4403471,40.3446751 75.1185214,40.9031716 76.4748904,41.0826911 L78.8684707,41.2023701 L80.0652608,41.2023701 C79.6463822,38.0907001 78.9283153,36.5348885 77.9110385,36.5348885 L77.4323225,36.5348885 C75.4376623,36.9737137 74.4403471,37.9311363 74.4403471,39.4071848 Z M64.8660259,31.2690118 C65.6239968,31.8674099 66.820775,34.6598923 68.4563964,39.6465429 L68.8154334,43.2369133 C68.8154334,48.8618551 66.4218771,53.1702566 61.6346925,56.1622469 C60.6772556,56.7207518 59.9591887,57 59.4804703,57 L59.2411123,57 C58.1839423,57 56.6281307,55.5239736 54.5736307,52.5718765 C53.7757666,51.893692 53.3768405,51.3351955 53.3768405,50.8963703 L53.7358776,50.6570122 C59.4605524,50.6570122 62.8913165,49.3006636 64.0282728,46.5879257 L64.0282728,46.4682467 C64.0282728,45.6903292 63.0708503,42.8579542 61.1559765,37.9710367 C61.1559765,37.5920512 62.2729695,35.3979579 64.5069889,31.3886909 L64.6266679,31.2690118 L64.8660259,31.2690118 Z M47.183864,21.5750117 C47.582796,21.5750117 48.5402185,22.4925416 50.0561603,24.327629 L50.0561603,24.686666 C50.0561603,25.0855981 49.1386304,26.0430206 47.303543,27.5589624 L46.7051479,27.5589624 L44.0722096,24.9260241 L44.0722096,24.566987 C44.0722096,24.0483754 44.9897395,23.0510602 46.8248269,21.5750117 L47.183864,21.5750117 Z M48.4404936,31.2690118 C49.1984645,31.8674099 50.3952427,34.6598923 52.030864,39.6465429 L52.3899011,43.2369133 C52.3899011,48.8618551 49.9963447,53.1702566 45.2091602,56.1622469 C44.2517233,56.7207518 43.5336564,57 43.0549379,57 L42.8155799,57 C41.75841,57 40.2025984,55.5239736 38.1480983,52.5718765 C37.3502343,51.893692 36.9513082,51.3351955 36.9513082,50.8963703 L37.3103452,50.6570122 C43.0350201,50.6570122 46.4657842,49.3006636 47.6027405,46.5879257 L47.6027405,46.4682467 C47.6027405,45.6903292 46.645318,42.8579542 44.7304442,37.9710367 C44.7304442,37.5920512 45.8474371,35.3979579 48.0814566,31.3886909 L48.2011356,31.2690118 L48.4404936,31.2690118 Z M26.9277783,19.6601474 L27.4064944,19.6601474 L29.4410376,21.6946907 L29.4410376,22.2930857 C28.2841347,23.6494547 27.4862826,24.327629 27.0474573,24.327629 C25.611302,23.2505125 24.893235,22.4526604 24.893235,21.9340487 L24.893235,21.6946907 L26.9277783,19.6601474 Z M24.175161,23.2505179 L24.29484,23.2505179 C24.7536118,23.2505179 25.6711418,24.04837 27.0474573,25.6440982 L27.0474573,26.2424932 C25.6711418,27.8382214 24.7536118,28.6360735 24.29484,28.6360735 C24.0754274,28.6360735 23.2376826,27.8382214 21.7815807,26.2424932 L21.7815807,25.8834562 C21.7815807,25.3448979 22.5794328,24.4672606 24.175161,23.2505179 Z M30.0394327,23.2505179 C30.4383647,23.2505179 31.3160021,24.0882626 32.672371,25.7637772 L32.672371,26.0031352 C32.672371,26.4020672 31.8346263,27.2797046 30.1591117,28.6360735 L29.8000746,28.6360735 C28.1245601,27.3195978 27.2868153,26.4020678 27.2868153,25.8834562 C27.2868153,25.4845241 28.1245601,24.6068868 29.8000746,23.2505179 L30.0394327,23.2505179 Z M36.1430624,28.5163945 C37.0207129,29.6732974 38.2972763,33.3035246 39.9727909,39.4071848 L39.9727909,40.364617 C39.9727909,42.9576752 38.5366571,45.3911242 35.6643464,47.6650369 C34.6071765,48.3831145 33.4901835,48.742148 32.313334,48.742148 L31.9542969,48.742148 C30.797394,48.742148 29.2016897,48.3831145 27.1671363,47.6650369 C27.1671363,48.2833815 26.1698212,48.7222002 24.175161,48.981506 C23.2576173,48.881773 22.2204095,48.4429543 21.0635066,47.6650369 C19.7270842,50.6570272 17.1340648,52.9309057 13.2843706,54.4867407 C11.9878415,54.8856727 10.7511707,55.0851358 9.57432117,55.0851358 L9.33496314,55.0851358 C4.52783202,54.6862037 1.53588657,52.6915734 0.359037044,49.101185 C0.179517624,49.101185 0.0598398065,48.3831181 -5.32907052e-14,46.9469628 L-5.32907052e-14,46.7076047 C-5.32907052e-14,43.5560416 0.757959513,40.8034518 2.27390128,38.4497527 L2.51325931,38.4497527 C3.31112339,38.788845 3.71004945,39.1478784 3.71004945,39.5268639 C3.31111741,41.2622182 3.11165438,42.6584595 3.11165438,43.7156294 C3.11165438,46.5081537 5.18606989,47.9043949 9.33496314,47.9043949 C13.1248176,47.9043949 15.6779443,47.0267576 16.9944201,45.2714566 L16.9944201,44.6730615 C16.9944201,44.2142896 16.2364606,42.0201963 14.7205188,38.0907157 L14.7205188,37.9710367 C14.7205188,37.452425 15.7577266,35.3381169 17.8321732,31.6280489 L18.1912102,31.2690118 L18.4305683,31.2690118 C18.8494469,31.4086381 20.2456881,34.6000465 22.6193338,40.843333 C22.7789066,40.843333 22.8586918,40.9630108 22.8586918,41.2023701 L23.6964449,41.6810861 C24.8533478,41.6810861 26.4091595,39.1279593 28.3639265,34.0216292 C29.1817372,33.0641923 29.8599115,32.585481 30.3984697,32.585481 L30.5181487,32.585481 L29.5607166,38.4497527 L29.5607166,38.5694317 C29.5607166,40.4843056 30.1989983,41.4417281 31.4755809,41.4417281 L32.433013,41.4417281 C34.188314,41.4417281 35.2255217,40.9231242 35.5446674,39.8859009 L35.5446674,39.6465429 C35.5446674,39.3672904 34.66703,37.0934119 32.911729,32.824839 L32.911729,32.226444 C33.3505543,30.9299148 34.387762,29.693244 36.0233834,28.5163945 L36.1430624,28.5163945 Z" id="آسانورزش" fill="#FFFFFF" fill-rule="nonzero"></path>
            </g>
        </g>
    </g>
</svg>