<?xml version="1.0" encoding="UTF-8"?>
<svg width="29px" height="37px" viewBox="0 0 29 37" version="1.1" xmlns="http://www.w3.org/2000/svg" xmlns:xlink="http://www.w3.org/1999/xlink">
    <!-- Generator: Sketch 53.1 (72631) - https://sketchapp.com -->
    <title>Shape@1x</title>
    <desc>Created with Sketch.</desc>
    <g id="Page-1" stroke="none" stroke-width="1" fill="none" fill-rule="evenodd">
        <g id="Landing-2" transform="translate(-320.000000, -4200.000000)" fill="#FFFFFF" fill-rule="nonzero">
            <g id="Group-4" transform="translate(186.000000, 4189.500000)">
                <path d="M162.913523,37.202 C162.817523,37.473 162.724523,37.764 162.617523,38.05 C161.731523,40.449 160.386523,42.579 158.754523,44.531 C158.439523,44.911 158.072523,45.255 157.693523,45.574 C156.944523,46.208 156.082523,46.591 155.085523,46.626 C154.336523,46.65 153.617523,46.514 152.924523,46.232 C152.422523,46.027 151.928523,45.798 151.419523,45.613 C149.767523,45.013 148.124523,45.092 146.499523,45.734 C145.913523,45.966 145.335523,46.222 144.738523,46.423 C144.046523,46.655 143.328523,46.749 142.597523,46.611 C141.959523,46.492 141.401523,46.195 140.883523,45.812 C140.240523,45.336 139.700523,44.756 139.195523,44.142 C136.804523,41.226 135.199523,37.929 134.424523,34.236 C134.090523,32.648 133.930523,31.047 134.028523,29.424 C134.143523,27.478 134.595523,25.625 135.635523,23.955 C136.940523,21.856 138.781523,20.481 141.203523,19.914 C142.660523,19.571 144.077523,19.711 145.466523,20.246 C146.197523,20.526 146.930523,20.803 147.664523,21.078 C148.340523,21.332 149.013523,21.332 149.690523,21.073 C150.439523,20.787 151.189523,20.502 151.941523,20.223 C152.712523,19.942 153.496523,19.712 154.314523,19.647 C155.538523,19.548 156.732523,19.707 157.894523,20.096 C159.541523,20.647 160.881523,21.622 161.893523,23.042 C161.920523,23.081 161.950523,23.124 161.970523,23.155 C159.418523,24.934 157.965523,27.284 158.176523,30.466 C158.389523,33.65 160.103523,35.804 162.913523,37.202 Z M148.598523,19.253 C149.351523,19.273 150.075523,19.128 150.772523,18.851 C153.951523,17.589 155.613523,14.226 155.563523,11.654 C155.559523,11.447 155.545523,11.24 155.536523,11 C155.209523,11.049 154.911523,11.072 154.625523,11.144 C152.304523,11.713 150.518523,13.008 149.344523,15.105 C148.657523,16.333 148.275523,17.637 148.392523,19.062 C148.400523,19.213 148.455523,19.251 148.598523,19.253 Z" id="Shape"></path>
            </g>
        </g>
    </g>
</svg>